<svg xmlns="http://www.w3.org/2000/svg" version="1.1" xmlns:xlink="http://www.w3.org/1999/xlink" xmlns:svgjs="http://svgjs.com/svgjs" width="512" height="512" x="0" y="0" viewBox="0 0 512 512" style="enable-background:new 0 0 512 512" xml:space="preserve" class=""><g><g xmlns="http://www.w3.org/2000/svg"><path d="m10 512h492c5.522 0 10-4.478 10-10v-26c0-38.598-31.402-70-70-70h-16v-6.734c24.192-11.483 40-36.073 40-63.266v-20c0-35.202-26.124-64.406-60-69.274v-90.726c0-13.036-8.361-24.152-20-28.28v-47.72h70c5.522 0 10-4.477 10-10v-60c0-5.523-4.478-10-10-10h-35c-5.522 0-10 4.477-10 10s4.478 10 10 10h25v40h-140v-40h25c5.522 0 10-4.477 10-10s-4.478-10-10-10h-35c-5.522 0-10 4.477-10 10v60c0 5.523 4.478 10 10 10h70v47.72c-11.639 4.128-20 15.243-20 28.28v97.639l-36.181 72.361h-23.819v-6.734c24.192-11.483 40-36.073 40-63.266v-40c0-38.598-31.402-70-70-70s-70 31.402-70 70v40.01c0 27.187 15.808 51.773 40 63.256v6.734h-30c-3.372 0-6.716.253-10.021.728.008-2.891.015-6.416.021-10.728 0-38.598-31.402-70-70-70s-70 31.402-70 70v20.01c0 27.187 15.808 51.773 40 63.256v6.734h-16c-38.598 0-70 31.402-70 70v26c0 5.522 4.477 10 10 10zm246-52.688-27.304-113.312h3.162l17.071 17.071c1.953 1.953 4.511 2.929 7.071 2.929s5.118-.976 7.071-2.929l17.072-17.071h3.162zm149.701-180.887c.198-.793.299-1.607.299-2.425v-8.994c22.795 4.646 40 24.848 40 48.994v20c0 21.158-13.396 40.111-33.334 47.162-3.995 1.413-6.666 5.19-6.666 9.428v23.41c0 5.523 4.478 10 10 10h26c27.57 0 50 22.43 50 50v16h-106v-134.769zm-39.701-122.425c0-5.514 4.486-10 10-10s10 4.486 10 10v10h-20zm-62.123 190h12.123c3.788 0 7.25-2.14 8.944-5.528l40-80c.694-1.389 1.056-2.92 1.056-4.472v-70h20v88.769l-19.701 78.806c-.198.793-.299 1.607-.299 2.425v136h-97.304zm-97.877-130c0-27.57 22.43-50 50-50s50 22.43 50 50v8.28c-11.639-4.128-20-15.243-20-28.28 0-4.638-3.188-8.667-7.702-9.732-4.512-1.068-9.167 1.111-11.241 5.259-10.637 21.264-32.009 34.473-55.777 34.473h-5.28zm0 40.01v-10.01h5.28c23.517 0 45.257-9.791 60.59-26.509 6.912 12.932 19.347 22.484 34.13 25.498v11.011c0 21.158-13.396 40.111-33.334 47.162-3.995 1.413-6.666 5.19-6.666 9.428v19.268l-10 10-10-10v-19.268c0-4.238-2.671-8.015-6.666-9.428-19.938-7.051-33.334-26-33.334-47.152zm-10 89.99h12.123l35.181 146h-57.304v-96c0-5.523-4.477-10-10-10s-10 4.477-10 10v96h-20v-96c0-27.648 22.411-50 50-50zm-176 130c0-27.57 22.43-50 50-50h26c5.523 0 10-4.477 10-10v-23.41c0-4.238-2.671-8.015-6.666-9.428-19.938-7.051-33.334-26-33.334-47.152v-20.01c0-27.57 22.43-50 50-50s50.042 22.43 50.042 49.987c-.007 4.935-.022 11.81-.042 16.785-24.159 11.487-40 36.063-40 63.228v96h-106z" fill="#ffffff" data-original="#000000" class=""></path><path d="m316 426h20c5.522 0 10-4.477 10-10s-4.478-10-10-10h-20c-5.522 0-10 4.477-10 10s4.478 10 10 10z" fill="#ffffff" data-original="#000000" class=""></path><circle cx="376" cy="10" r="10" fill="#ffffff" data-original="#000000" class=""></circle></g></g></svg>