<?xml version="1.0" encoding="UTF-8" standalone="no"?><!DOCTYPE svg PUBLIC "-//W3C//DTD SVG 1.1//EN" "http://www.w3.org/Graphics/SVG/1.1/DTD/svg11.dtd"><svg width="100%" height="100%" viewBox="0 0 512 512" version="1.1" xmlns="http://www.w3.org/2000/svg" xmlns:xlink="http://www.w3.org/1999/xlink" xml:space="preserve" xmlns:serif="http://www.serif.com/" style="fill-rule:evenodd;clip-rule:evenodd;stroke-linejoin:round;stroke-miterlimit:2;"><g><g id="_x32_5_Exchange_Ideas"><g><path d="M323.408,205.051c28.154,-23.363 42.1,-59.147 37.309,-95.716c-6.174,-47.256 -45.053,-85.385 -92.441,-90.659c-64.942,-7.393 -117.921,43.671 -117.921,104.858c0,31.29 13.686,60.795 37.551,80.948c0.002,0.002 0.005,0.005 0.009,0.007c12.069,10.143 20.858,23.85 25.178,38.981c-6.767,2.15 -10.679,8.142 -10.679,14.577c0,4.171 1.676,7.947 4.37,10.723c-2.81,2.879 -4.37,6.682 -4.37,10.744c0,8.496 6.895,15.409 15.368,15.409l10.901,0l14.796,14.795c6.908,6.909 18.145,6.907 25.052,0l14.795,-14.795l10.899,0c8.301,0 15.369,-6.706 15.369,-15.409c0,-4.168 -1.68,-7.942 -4.382,-10.714c2.819,-2.88 4.382,-6.686 4.382,-10.753c0,-6.872 -4.561,-12.635 -10.793,-14.597c4.228,-15.14 12.814,-28.646 24.607,-38.399Zm-61.461,98.084c-3.278,3.273 -8.606,3.273 -11.884,0l-8.211,-8.211l28.308,0l-8.213,8.211Zm32.278,-17.523c-1.187,0 -73.008,-0.005 -76.445,-0.002c-3.339,-0.002 -6.054,-2.735 -6.054,-6.096c0,-3.388 2.666,-6.058 6.057,-6.058l76.442,0c3.339,0 6.059,2.718 6.059,6.058c0,3.481 -2.823,6.098 -6.059,6.098Zm6.059,-27.565c0,3.48 -2.823,6.097 -6.059,6.097l-76.442,0c-3.339,0 -6.057,-2.735 -6.057,-6.097c0,-3.388 2.666,-6.058 6.057,-6.058l42.127,0c0.848,0 1.095,0 1.026,0l33.289,0c3.339,0 6.059,2.719 6.059,6.058Zm-10.965,-15.37l-66.739,0c-4.629,-17.604 -14.711,-33.581 -28.668,-45.31c-21.762,-18.38 -34.246,-45.29 -34.246,-73.833c0,-55.733 48.204,-102.318 107.572,-95.605c43.19,4.808 78.619,39.551 84.243,82.614c4.377,33.382 -8.34,66.034 -34.014,87.338c-13.701,11.332 -23.602,27.129 -28.148,44.796Z" style="fill:#fff;fill-rule:nonzero;stroke:#fff;stroke-width:7.85px;"/><path d="M330.18,100.358c-2.278,-1.216 -5.093,-0.341 -6.293,1.932l-5.189,9.788c-3.616,-19.601 -16.286,-36.929 -34.708,-45.909c-23.795,-11.602 -52.689,-7.127 -71.895,11.143c-1.861,1.774 -1.934,4.72 -0.163,6.585c1.775,1.863 4.721,1.938 6.583,0.163c16.395,-15.603 41.066,-19.426 61.396,-9.521c16.101,7.849 27.059,23.169 29.844,40.396l-8.206,-10.859c-1.548,-2.049 -4.464,-2.457 -6.522,-0.906c-2.051,1.55 -2.457,4.469 -0.906,6.521l16.977,22.463c0.883,1.169 2.261,1.848 3.714,1.848c0.123,0 0.248,-0.003 0.371,-0.015c1.587,-0.125 2.998,-1.052 3.741,-2.46l13.188,-24.877c1.205,-2.271 0.341,-5.091 -1.932,-6.292Z" style="fill:#fff;fill-rule:nonzero;stroke:#fff;stroke-width:7.85px;"/><path d="M294.511,163.212c-16.399,15.599 -41.073,19.427 -61.399,9.518c-16.102,-7.85 -27.062,-23.168 -29.845,-40.395l8.208,10.859c1.55,2.051 4.469,2.457 6.522,0.907c2.051,-1.55 2.457,-4.469 0.908,-6.522l-16.979,-22.463c-0.956,-1.265 -2.488,-1.961 -4.085,-1.832c-1.586,0.125 -2.997,1.055 -3.741,2.459l-13.188,24.878c-1.205,2.271 -0.341,5.09 1.932,6.292c2.264,1.206 5.091,0.34 6.293,-1.932l5.189,-9.787c3.616,19.601 16.286,36.928 34.706,45.907c23.912,11.653 52.782,7.039 71.898,-11.143c1.862,-1.773 1.934,-4.719 0.163,-6.584c-1.772,-1.861 -4.72,-1.931 -6.582,-0.162Z" style="fill:#fff;fill-rule:nonzero;stroke:#fff;stroke-width:7.85px;"/></g></g><g><g><g><path d="M445.188,263.421c-12.204,-12.468 -29.021,-19.485 -46.573,-19.436l-3.34,0c-17.534,-0.035 -34.326,6.982 -46.518,19.436c-11.47,11.656 -17.562,27.476 -16.833,43.719l1.268,28.859c1.923,33.025 29.88,58.658 63.341,58.074l0.824,0c33.461,0.584 61.418,-25.049 63.34,-58.074l1.323,-28.859c0.727,-16.243 -5.363,-32.063 -16.832,-43.719Zm-4.859,42.851l-1.302,28.838c-1.47,21.525 -19.85,38.076 -41.67,37.522l-0.824,0c-21.82,0.554 -40.2,-15.997 -41.67,-37.522l-1.302,-28.892c-0.419,-10.387 3.503,-20.486 10.846,-27.927c8.098,-8.248 19.24,-12.892 30.868,-12.865l3.34,0c11.628,-0.027 22.77,4.617 30.868,12.865c7.356,7.455 11.279,17.576 10.846,27.981Z" style="fill:#fff;fill-rule:nonzero;"/></g></g><g><path d="M163.243,263.421c-12.192,-12.454 -28.984,-19.471 -46.518,-19.436l-3.34,0c-17.534,-0.035 -34.326,6.982 -46.518,19.436c-11.469,11.656 -17.561,27.476 -16.833,43.719l1.269,28.859c1.922,33.025 29.879,58.658 63.34,58.074l0.824,0c33.461,0.584 61.418,-25.049 63.341,-58.074l1.268,-28.859c0.729,-16.243 -5.363,-32.063 -16.833,-43.719Zm-4.804,42.851l-1.302,28.838c-1.47,21.525 -19.85,38.076 -41.67,37.522l-0.824,0c-21.82,0.554 -40.2,-15.997 -41.67,-37.522l-1.302,-28.892c-0.419,-10.387 3.503,-20.486 10.846,-27.927c8.098,-8.248 19.24,-12.892 30.868,-12.865l3.34,0c11.628,-0.027 22.77,4.617 30.868,12.865c7.356,7.455 11.279,17.576 10.846,27.981Z" style="fill:#fff;fill-rule:nonzero;"/></g><g><g><path d="M171.095,404.793l-112.081,0c-28.937,0.029 -52.388,23.211 -52.418,51.813l0,44.673c0,5.92 4.856,10.72 10.846,10.72c5.989,0 10.846,-4.8 10.846,-10.72l0,-44.673c0.017,-16.767 13.764,-30.354 30.726,-30.372l112.081,0c16.964,0.018 30.71,13.605 30.727,30.372l0,44.673c0,5.92 4.857,10.72 10.846,10.72c5.99,0 10.846,-4.8 10.846,-10.72l0,-44.673c-0.03,-28.602 -23.481,-51.784 -52.419,-51.813Z" style="fill:#fff;fill-rule:nonzero;"/></g></g><g><g><path d="M452.986,404.793l-112.081,0c-28.938,0.029 -52.389,23.211 -52.419,51.813l0,44.673c0,5.92 4.856,10.72 10.846,10.72c5.989,0 10.846,-4.8 10.846,-10.72l0,-44.673c0.017,-16.767 13.765,-30.354 30.727,-30.372l112.081,0c16.963,0.018 30.709,13.605 30.726,30.372l0,44.673c0,5.92 4.857,10.72 10.846,10.72c5.99,0 10.846,-4.8 10.846,-10.72l0,-44.673c-0.03,-28.602 -23.481,-51.784 -52.418,-51.813Z" style="fill:#fff;fill-rule:nonzero;"/></g></g></g></g></svg>