<?xml version="1.0" encoding="UTF-8" standalone="no"?><!DOCTYPE svg PUBLIC "-//W3C//DTD SVG 1.1//EN" "http://www.w3.org/Graphics/SVG/1.1/DTD/svg11.dtd"><svg width="100%" height="100%" viewBox="0 0 512 512" version="1.1" xmlns="http://www.w3.org/2000/svg" xmlns:xlink="http://www.w3.org/1999/xlink" xml:space="preserve" xmlns:serif="http://www.serif.com/" style="fill-rule:evenodd;clip-rule:evenodd;stroke-linejoin:round;stroke-miterlimit:2;"><g><g><path d="M464,400l-0.88,0c10.4,-10.176 16.88,-24.336 16.88,-40c0,-30.88 -25.12,-56 -56,-56c-30.88,0 -56,25.12 -56,56c0,15.664 6.48,29.824 16.88,40l-0.88,0c-22.056,0 -40,17.944 -40,40l0,64c0,4.416 3.584,8 8,8l144,0c4.416,0 8,-3.584 8,-8l0,-64c0,-22.056 -17.944,-40 -40,-40Zm-80,-40c0,-22.056 17.944,-40 40,-40c22.056,0 40,17.944 40,40c0,22.056 -17.944,40 -40,40c-22.056,0 -40,-17.944 -40,-40Zm104,136l-24,0l0,-24c0,-4.416 -3.584,-8 -8,-8c-4.416,0 -8,3.584 -8,8l0,24l-48,0l0,-24c0,-4.416 -3.584,-8 -8,-8c-4.416,0 -8,3.584 -8,8l0,24l-24,0l0,-56c0,-13.232 10.768,-24 24,-24l80,0c13.232,0 24,10.768 24,24l0,56Z" style="fill:#fff;fill-rule:nonzero;"/><path d="M128,400l-0.88,0c10.4,-10.176 16.88,-24.336 16.88,-40c0,-30.88 -25.12,-56 -56,-56c-30.88,0 -56,25.12 -56,56c0,15.664 6.48,29.824 16.88,40l-0.88,0c-22.056,0 -40,17.944 -40,40l0,64c0,4.416 3.584,8 8,8l144,0c4.416,0 8,-3.584 8,-8l0,-64c0,-22.056 -17.944,-40 -40,-40Zm-80,-40c0,-22.056 17.944,-40 40,-40c22.056,0 40,17.944 40,40c0,22.056 -17.944,40 -40,40c-22.056,0 -40,-17.944 -40,-40Zm104,136l-24,0l0,-24c0,-4.416 -3.584,-8 -8,-8c-4.416,0 -8,3.584 -8,8l0,24l-48,0l0,-24c0,-4.416 -3.584,-8 -8,-8c-4.416,0 -8,3.584 -8,8l0,24l-24,0l0,-56c0,-13.232 10.768,-24 24,-24l80,0c13.232,0 24,10.768 24,24l0,56Z" style="fill:#fff;fill-rule:nonzero;"/><path d="M216.88,96l-0.88,0c-22.056,0 -40,17.944 -40,40l0,64c0,4.416 3.584,8 8,8l144,0c4.416,0 8,-3.584 8,-8l0,-64c0,-22.056 -17.944,-40 -40,-40l-0.88,0c10.4,-10.176 16.88,-24.336 16.88,-40c0,-30.88 -25.12,-56 -56,-56c-30.88,0 -56,25.12 -56,56c0,15.664 6.48,29.824 16.88,40Zm79.12,16c13.232,0 24,10.768 24,24l0,56l-24,0l0,-24c0,-4.416 -3.584,-8 -8,-8c-4.416,0 -8,3.584 -8,8l0,24l-48,0l0,-24c0,-4.416 -3.584,-8 -8,-8c-4.416,0 -8,3.584 -8,8l0,24l-24,0l0,-56c0,-13.232 10.768,-24 24,-24l80,0Zm-40,-96c22.056,0 40,17.944 40,40c0,22.056 -17.944,40 -40,40c-22.056,0 -40,-17.944 -40,-40c0,-22.056 17.944,-40 40,-40Z" style="fill:#fff;fill-rule:nonzero;"/><path d="M325.232,443.68c-44.288,16.344 -94.168,16.344 -138.464,0c-4.136,-1.536 -8.744,0.584 -10.272,4.736c-1.528,4.144 0.592,8.744 4.736,10.272c23.92,8.832 49.08,13.312 74.768,13.312c25.688,0 50.84,-4.48 74.768,-13.312c4.144,-1.528 6.264,-6.128 4.736,-10.272c-1.528,-4.144 -6.128,-6.264 -10.272,-4.736Z" style="fill:#fff;fill-rule:nonzero;"/><path d="M52.328,305.536c0.528,0 1.064,-0.048 1.6,-0.16c4.336,-0.88 7.128,-5.104 6.248,-9.432c-2.776,-13.608 -4.176,-27.04 -4.176,-39.944c0,-83.512 52.648,-158.976 131,-187.776c4.144,-1.52 6.272,-6.12 4.744,-10.272c-1.52,-4.144 -6.112,-6.272 -10.272,-4.744c-84.616,31.112 -141.472,112.6 -141.472,202.792c0,13.976 1.512,28.488 4.496,43.136c0.768,3.792 4.104,6.4 7.832,6.4Z" style="fill:#fff;fill-rule:nonzero;"/><path d="M325,68.224c78.352,28.8 131,104.264 131,187.776c0,12.904 -1.4,26.336 -4.176,39.944c-0.88,4.328 1.912,8.552 6.248,9.432c0.536,0.112 1.072,0.16 1.6,0.16c3.728,0 7.056,-2.616 7.832,-6.408c2.984,-14.64 4.496,-29.152 4.496,-43.128c0,-90.192 -56.856,-171.68 -141.48,-202.792c-4.168,-1.536 -8.752,0.6 -10.272,4.744c-1.52,4.152 0.608,8.752 4.752,10.272Z" style="fill:#fff;fill-rule:nonzero;"/><path d="M344,312c0,-48.52 -39.48,-88 -88,-88c-48.52,0 -88,39.48 -88,88l0,80c0,4.416 3.584,8 8,8l80,0c48.52,0 88,-39.48 88,-88Zm-160,0c0,-39.696 32.304,-72 72,-72c39.696,0 72,32.304 72,72c0,39.696 -32.304,72 -72,72l-72,0l0,-72Z" style="fill:#fff;fill-rule:nonzero;"/><path d="M240,288l56,0c4.416,0 8,-3.584 8,-8c0,-4.416 -3.584,-8 -8,-8l-56,0c-4.416,0 -8,3.584 -8,8c0,4.416 3.584,8 8,8Z" style="fill:#fff;fill-rule:nonzero;"/><path d="M216,320l16,0c4.416,0 8,-3.584 8,-8c0,-4.416 -3.584,-8 -8,-8l-16,0c-4.416,0 -8,3.584 -8,8c0,4.416 3.584,8 8,8Z" style="fill:#fff;fill-rule:nonzero;"/><path d="M296,304l-40,0c-4.416,0 -8,3.584 -8,8c0,4.416 3.584,8 8,8l40,0c4.416,0 8,-3.584 8,-8c0,-4.416 -3.584,-8 -8,-8Z" style="fill:#fff;fill-rule:nonzero;"/><path d="M264,344c0,-4.416 -3.584,-8 -8,-8l-40,0c-4.416,0 -8,3.584 -8,8c0,4.416 3.584,8 8,8l40,0c4.416,0 8,-3.584 8,-8Z" style="fill:#fff;fill-rule:nonzero;"/></g></g></svg>