<?xml version="1.0" encoding="UTF-8" standalone="no"?><!DOCTYPE svg PUBLIC "-//W3C//DTD SVG 1.1//EN" "http://www.w3.org/Graphics/SVG/1.1/DTD/svg11.dtd"><svg width="100%" height="100%" viewBox="0 0 512 512" version="1.1" xmlns="http://www.w3.org/2000/svg" xmlns:xlink="http://www.w3.org/1999/xlink" xml:space="preserve" xmlns:serif="http://www.serif.com/" style="fill-rule:evenodd;clip-rule:evenodd;stroke-linejoin:round;stroke-miterlimit:2;"><rect x="-1.205" y="-2.382" width="516.755" height="511.567" style="fill-opacity:0;"/><g><g><path d="M492.698,185.196l-0,-57.04c-0.01,-8.707 -7.638,-15.869 -16.911,-15.879l-101.47,-0c-9.274,0.01 -16.901,7.172 -16.912,15.879l-0,57.04c-10,3.41 -16.697,12.383 -16.697,22.372c-0,12.988 11.321,23.701 25.153,23.802l118.382,-0c13.83,-0.103 25.15,-10.815 25.15,-23.802c-0,-9.988 -6.696,-18.962 -16.695,-22.372Zm-118.381,-57.04l101.47,-0l-0,55.577l-101.47,-0l-0,-55.577Zm109.926,87.335l-118.382,-0c-4.592,-0.064 -8.331,-3.628 -8.331,-7.94c-0,-4.311 3.74,-7.875 8.331,-7.939l118.382,-0c4.591,0.064 8.331,3.628 8.331,7.939c-0,4.312 -3.74,7.876 -8.331,7.94Z" style="fill:#fff;fill-rule:nonzero;"/><g><path d="M196.325,107.503l47.473,0l0,18.833l-9.494,0c-5.158,0.073 -9.361,4.301 -9.361,9.417c0,5.116 4.203,9.345 9.361,9.417l37.978,0c5.158,-0.073 9.361,-4.301 9.361,-9.417c0,-5.116 -4.203,-9.344 -9.361,-9.417l-9.495,0l0,-18.833l47.473,0c10.413,-0.012 18.977,-8.507 18.989,-18.834l0,-65.917c-0.012,-10.328 -8.576,-18.822 -18.989,-18.834l-113.935,0c-10.412,0.012 -18.977,8.506 -18.989,18.834l0,65.917c0.012,10.327 8.577,18.822 18.989,18.834Zm0,-84.751l113.935,0l0.014,65.917l-113.949,0l0,-65.917Z" style="fill:#fff;fill-rule:nonzero;"/><path d="M253.295,204.531l-0.004,0c-4.638,0 -8.454,3.583 -8.454,7.937l-0,15.881c-0,4.356 3.817,7.94 8.456,7.94c4.639,0 8.456,-3.584 8.456,-7.94l-0,-15.881c-0,-4.354 -3.816,-7.937 -8.454,-7.937Z" style="fill:#fff;fill-rule:nonzero;"/><path d="M261.749,164.833c-0.065,-4.313 -3.862,-7.828 -8.456,-7.828c-4.594,0 -8.391,3.515 -8.456,7.828l0,15.879c0.065,4.313 3.862,7.828 8.456,7.828c4.594,0 8.391,-3.515 8.456,-7.828l0,-15.879Z" style="fill:#fff;fill-rule:nonzero;"/></g><path d="M123.235,227.4l0,-111.153c-0.015,-13.061 -11.457,-23.804 -25.367,-23.819l-67.647,0c-13.91,0.015 -25.352,10.758 -25.368,23.819l0,111.153c0.016,13.061 11.458,23.804 25.368,23.818l67.647,0c13.91,-0.014 25.352,-10.757 25.367,-23.818Zm-16.911,0c-0.005,4.354 -3.819,7.935 -8.456,7.939l-67.647,0c-4.637,-0.004 -8.451,-3.585 -8.456,-7.939l0,-111.153c0.005,-4.354 3.819,-7.935 8.456,-7.94l67.647,0c4.637,0.005 8.451,3.586 8.456,7.94l0,111.153Z" style="fill:#fff;fill-rule:nonzero;"/><path d="M398.167,272.432l-10.665,12.32c-1.163,1.397 -1.795,3.119 -1.795,4.892c-0,4.356 3.817,7.941 8.457,7.941c2.488,0 4.854,-1.031 6.46,-2.816l10.664,-12.32c1.161,-1.395 1.792,-3.116 1.792,-4.887c-0,-4.357 -3.818,-7.941 -8.457,-7.941c-2.486,0 -4.85,1.029 -6.456,2.811Z" style="fill:#fff;fill-rule:nonzero;"/><path d="M366.168,309.4l-10.664,12.328c-1.161,1.396 -1.792,3.118 -1.792,4.889c-0,4.358 3.819,7.944 8.46,7.944c2.489,0 4.855,-1.031 6.462,-2.816l10.664,-12.327c1.159,-1.396 1.789,-3.116 1.789,-4.885c-0,-4.358 -3.82,-7.944 -8.461,-7.944c-2.487,0 -4.851,1.029 -6.458,2.811Z" style="fill:#fff;fill-rule:nonzero;"/><path d="M141.424,308.623c-1.607,-1.783 -3.971,-2.812 -6.458,-2.812c-4.641,0 -8.46,3.586 -8.46,7.944c0,1.77 0.629,3.49 1.789,4.885l10.664,12.328c1.605,1.855 4.019,2.934 6.565,2.934c4.64,0 8.459,-3.586 8.459,-7.943c0,-1.824 -0.669,-3.593 -1.894,-5.009l-10.665,-12.327Z" style="fill:#fff;fill-rule:nonzero;"/><path d="M109.425,271.654c-1.606,-1.782 -3.97,-2.812 -6.457,-2.812c-4.639,0 -8.457,3.584 -8.457,7.94c0,1.772 0.631,3.494 1.793,4.89l10.665,12.32c1.604,1.872 4.029,2.962 6.587,2.962c4.639,0 8.456,-3.584 8.456,-7.939c-0,-1.838 -0.679,-3.62 -1.922,-5.041l-10.665,-12.32Z" style="fill:#fff;fill-rule:nonzero;"/></g><g><path d="M310.188,376.577l-1.146,-0c13.539,-13.248 21.975,-31.682 21.975,-52.075c0,-40.201 -32.702,-72.904 -72.904,-72.904c-40.202,-0 -72.905,32.703 -72.905,72.904c0,20.393 8.437,38.827 21.976,52.075l-1.146,-0c-28.714,-0 -52.074,23.36 -52.074,52.074l-0,83.32c-0,5.749 4.666,10.415 10.415,10.415l187.468,-0c5.749,-0 10.415,-4.666 10.415,-10.415l0,-83.32c0,-28.714 -23.361,-52.074 -52.074,-52.074Zm-104.15,-52.075c0,-28.714 23.361,-52.074 52.075,-52.074c28.714,-0 52.075,23.36 52.075,52.074c-0,28.714 -23.361,52.075 -52.075,52.075c-28.714,-0 -52.075,-23.361 -52.075,-52.075Zm135.394,177.054l-31.244,-0l-0,-31.245c-0,-5.749 -4.666,-10.415 -10.415,-10.415c-5.749,0 -10.415,4.666 -10.415,10.415l-0,31.245l-62.49,-0l0,-31.245c0,-5.749 -4.666,-10.415 -10.415,-10.415c-5.749,0 -10.415,4.666 -10.415,10.415l0,31.245l-31.244,-0l-0,-72.905c-0,-17.226 14.018,-31.244 31.244,-31.244l104.15,-0c17.226,-0 31.244,14.018 31.244,31.244l0,72.905Z" style="fill:#fff;fill-opacity:0;fill-rule:nonzero;"/><g><g><g id="_08_Nerd_Glasses"><path d="M405.54,391.793l-1.961,-0c-7.251,-30.697 -34.882,-52.562 -66.423,-52.562c-29.592,0 -55.968,19.246 -64.997,47.427c-5.863,-3.192 -12.369,-5.03 -19.036,-5.377c-6.669,0.348 -13.175,2.186 -19.041,5.377c-9.044,-28.157 -35.408,-47.38 -64.982,-47.38c-31.523,0 -59.143,21.84 -66.412,52.515l-1.981,-0c-8.65,-0 -15.767,7.117 -15.767,15.767c-0,8.65 7.117,15.767 15.767,15.767l1.96,0c7.242,30.689 34.864,52.551 66.396,52.551c33.227,0 61.862,-24.276 67.3,-57.055c4.986,-3.391 10.755,-5.458 16.76,-6.007c6.003,0.56 11.768,2.63 16.755,6.017c5.447,32.774 34.079,57.041 67.302,57.041c31.532,0 59.153,-21.859 66.399,-52.547l1.961,0c8.649,0 15.767,-7.117 15.767,-15.767c-0,-8.65 -7.118,-15.767 -15.767,-15.767Zm-0,21.023l-6.26,-0c-2.557,-0.003 -4.763,1.861 -5.187,4.383c-4.636,27.69 -28.84,48.179 -56.916,48.179c-28.865,0 -53.514,-21.656 -57.229,-50.281c-0.188,-1.419 -0.948,-2.702 -2.102,-3.548c-7.235,-5.292 -15.79,-8.491 -24.723,-9.245c-8.941,0.75 -17.504,3.951 -24.744,9.25c-1.153,0.845 -1.913,2.126 -2.102,3.543c-3.723,28.617 -28.368,50.264 -57.226,50.264c-28.069,-0 -52.27,-20.48 -56.913,-48.162c-0.423,-2.516 -2.621,-4.378 -5.172,-4.383l-6.259,-0c-2.883,-0 -5.256,-2.373 -5.256,-5.256c0,-2.883 2.373,-5.256 5.256,-5.256l6.259,0c2.557,0.002 4.763,-1.862 5.188,-4.383c4.653,-27.69 28.863,-48.171 56.941,-48.171c27.246,-0 50.966,19.285 56.525,45.958c0.507,2.427 2.665,4.182 5.145,4.182c1.055,-0 2.087,-0.318 2.959,-0.913c5.774,-3.959 12.439,-6.427 19.399,-7.184c6.959,0.755 13.622,3.224 19.394,7.184c0.872,0.595 1.904,0.913 2.959,0.913c2.48,-0 4.638,-1.755 5.145,-4.182c5.554,-26.679 29.276,-45.972 56.528,-45.972c28.083,-0 52.297,20.489 56.944,48.185c0.424,2.521 2.63,4.385 5.187,4.383l6.26,0c2.883,0 5.255,2.373 5.255,5.256c0,2.883 -2.372,5.256 -5.255,5.256Z" style="fill:#fff;fill-rule:nonzero;"/><path d="M337.215,360.258c-25.949,0 -47.302,21.353 -47.302,47.302c0,25.949 21.353,47.302 47.302,47.302c25.949,-0 47.302,-21.353 47.302,-47.302c-0.029,-25.938 -21.364,-47.273 -47.302,-47.302Zm-0,84.092c-5.313,-0.006 -10.561,-1.17 -15.378,-3.411l24.081,-24.087c0.947,-0.979 1.476,-2.289 1.476,-3.651c-0,-2.883 -2.373,-5.256 -5.256,-5.256c-1.362,0 -2.672,0.529 -3.651,1.475l-25.632,25.633c-7.886,-6.972 -12.408,-17.006 -12.408,-27.532c-0,-20.159 16.588,-36.748 36.748,-36.748c5.026,0 9.998,1.031 14.61,3.029l-28.181,28.187c-0.946,0.979 -1.476,2.289 -1.476,3.651c0,2.883 2.373,5.256 5.256,5.256c1.362,-0 2.672,-0.529 3.651,-1.476l29.727,-29.715c0.063,-0.064 0.084,-0.153 0.147,-0.216c8.273,6.981 13.054,17.272 13.054,28.097c0,20.168 -16.595,36.764 -36.763,36.764c-0.002,0 -0.004,0 -0.005,0Z" style="fill:#fff;fill-rule:nonzero;"/><path d="M169.031,360.258c-25.949,0 -47.301,21.353 -47.301,47.302c-0,25.949 21.352,47.302 47.301,47.302c25.949,-0 47.302,-21.353 47.302,-47.302c-0.032,-25.937 -21.365,-47.27 -47.302,-47.302Zm0,84.092c-5.832,-0.001 -11.58,-1.4 -16.76,-4.078l23.425,-23.42c0.984,-0.985 1.538,-2.323 1.538,-3.716c0,-2.884 -2.373,-5.257 -5.257,-5.257c-1.394,0 -2.733,0.555 -3.718,1.541l-24.66,24.66c-7.274,-6.928 -11.396,-16.547 -11.396,-26.593c-0,-20.148 16.579,-36.727 36.727,-36.727c4.528,-0 9.017,0.837 13.241,2.469l-28.775,28.76c-0.947,0.979 -1.476,2.289 -1.476,3.651c0,2.883 2.373,5.256 5.256,5.256c1.362,-0 2.672,-0.529 3.651,-1.476l29.753,-29.715c0.342,-0.378 0.625,-0.805 0.841,-1.267c9.071,6.948 14.4,17.743 14.4,29.169c0,20.157 -16.586,36.743 -36.743,36.743c-0.015,0 -0.031,0 -0.047,0Z" style="fill:#fff;fill-rule:nonzero;"/><path d="M376.633,475.764c-11.972,6.956 -25.572,10.624 -39.418,10.632c-2.883,-0 -5.256,2.373 -5.256,5.256c0,2.883 2.373,5.255 5.256,5.255c15.691,-0.013 31.104,-4.171 44.674,-12.051c1.515,-0.963 2.436,-2.639 2.436,-4.435c-0,-2.884 -2.373,-5.256 -5.256,-5.256c-0.848,-0 -1.684,0.205 -2.436,0.599Z" style="fill:#fff;fill-rule:nonzero;"/><path d="M391.297,466.897c-0.976,0.984 -1.525,2.315 -1.525,3.701c0,2.883 2.373,5.256 5.256,5.256c2.872,-0 5.239,-2.354 5.256,-5.225c-0.011,-1.393 -0.557,-2.73 -1.524,-3.732c-2.097,-1.934 -5.367,-1.934 -7.463,0Z" style="fill:#fff;fill-rule:nonzero;"/><path d="M169.031,328.724c17.924,-0.063 35.331,6.066 49.262,17.344c0.95,0.804 2.154,1.246 3.398,1.246c2.883,-0 5.256,-2.373 5.256,-5.256c-0,-1.638 -0.766,-3.185 -2.068,-4.179c-15.84,-12.702 -35.543,-19.641 -55.848,-19.667c-2.883,0 -5.255,2.373 -5.255,5.256c-0,2.883 2.372,5.256 5.255,5.256Z" style="fill:#fff;fill-rule:nonzero;"/><path d="M148.008,328.724c2.835,-0.028 5.152,-2.368 5.152,-5.203c-0,-2.854 -2.349,-5.203 -5.204,-5.203c-2.854,-0 -5.203,2.349 -5.203,5.203c0,1.379 0.549,2.703 1.524,3.679c1.007,0.959 2.341,1.503 3.731,1.524Z" style="fill:#fff;fill-rule:nonzero;"/><path d="M183.117,394.578c-0.967,0.982 -1.514,2.302 -1.524,3.679c0.01,1.393 0.556,2.73 1.524,3.732c2.059,2.02 5.404,2.02 7.463,-0c0.968,-1.002 1.514,-2.339 1.524,-3.732c-0.011,-1.377 -0.558,-2.697 -1.524,-3.679c-2.075,-1.985 -5.389,-1.985 -7.463,0Z" style="fill:#fff;fill-rule:nonzero;"/><path d="M353.345,394.578c-0.984,0.97 -1.532,2.298 -1.519,3.679c-0.014,1.397 0.534,2.742 1.519,3.732c0.985,0.996 2.336,1.547 3.737,1.524c1.382,0.016 2.713,-0.535 3.679,-1.524c1.002,-0.983 1.571,-2.328 1.576,-3.732c-0.003,-1.389 -0.573,-2.718 -1.576,-3.679c-2.054,-1.989 -5.362,-1.989 -7.416,0Z" style="fill:#fff;fill-rule:nonzero;"/></g></g></g></g></g></svg>