<svg width="auto" height="auto" viewBox="0 0 72 70" fill="none" xmlns="http://www.w3.org/2000/svg">
<path d="M41.81 29.26C41.7257 28.5357 41.4979 27.8354 41.14 27.2C41.0567 27.0323 40.9597 26.8717 40.85 26.72L40.69 26.51C39.9497 25.489 38.8964 24.7376 37.69 24.37C37.1184 24.1841 36.5211 24.0896 35.92 24.09C35.0428 24.0942 34.1772 24.2907 33.3842 24.6656C32.5911 25.0405 31.8899 25.5848 31.33 26.26C31.1257 26.5023 30.9449 26.7635 30.79 27.04C30.7725 27.0771 30.7489 27.1109 30.72 27.14L30.55 27.47C30.1757 28.2716 29.9812 29.1453 29.98 30.03C29.98 30.23 29.98 30.43 29.98 30.63C30.0731 31.6324 30.417 32.5953 30.98 33.43C31.6923 34.4575 32.716 35.2287 33.9 35.63C34.541 35.8618 35.2184 35.977 35.9 35.97C37.481 35.9701 38.9981 35.3462 40.1216 34.2339C41.2451 33.1216 41.8842 31.6109 41.9 30.03C41.8908 29.7713 41.8607 29.5138 41.81 29.26ZM41.81 29.26C41.7257 28.5357 41.4979 27.8354 41.14 27.2C41.0567 27.0323 40.9597 26.8717 40.85 26.72L40.69 26.51C39.9497 25.489 38.8964 24.7376 37.69 24.37C37.1184 24.1841 36.5211 24.0896 35.92 24.09C35.0428 24.0942 34.1772 24.2907 33.3842 24.6656C32.5911 25.0405 31.8899 25.5848 31.33 26.26C31.1257 26.5023 30.9449 26.7635 30.79 27.04C30.7725 27.0771 30.7489 27.1109 30.72 27.14L30.55 27.47C30.1757 28.2716 29.9812 29.1453 29.98 30.03C29.98 30.23 29.98 30.43 29.98 30.63C30.0731 31.6324 30.417 32.5953 30.98 33.43C31.6923 34.4575 32.716 35.2287 33.9 35.63C34.541 35.8618 35.2184 35.977 35.9 35.97C37.481 35.9701 38.9981 35.3462 40.1216 34.2339C41.2451 33.1216 41.8842 31.6109 41.9 30.03C41.8908 29.7713 41.8607 29.5138 41.81 29.26ZM41.81 29.26C41.7257 28.5357 41.4979 27.8354 41.14 27.2C41.0567 27.0323 40.9597 26.8717 40.85 26.72L40.69 26.51C39.9497 25.489 38.8964 24.7376 37.69 24.37C37.1184 24.1841 36.5211 24.0896 35.92 24.09C35.0428 24.0942 34.1772 24.2907 33.3842 24.6656C32.5911 25.0405 31.8899 25.5848 31.33 26.26C31.1257 26.5023 30.9449 26.7635 30.79 27.04C30.7725 27.0771 30.7489 27.1109 30.72 27.14L30.55 27.47C30.1757 28.2716 29.9812 29.1453 29.98 30.03C29.98 30.23 29.98 30.43 29.98 30.63C30.0731 31.6324 30.417 32.5953 30.98 33.43C31.6923 34.4575 32.716 35.2287 33.9 35.63C34.541 35.8618 35.2184 35.977 35.9 35.97C37.481 35.9701 38.9981 35.3462 40.1216 34.2339C41.2451 33.1216 41.8842 31.6109 41.9 30.03C41.8908 29.7713 41.8607 29.5138 41.81 29.26ZM41.81 29.26C41.7257 28.5357 41.4979 27.8354 41.14 27.2C41.0567 27.0323 40.9597 26.8717 40.85 26.72L40.69 26.51C39.9497 25.489 38.8964 24.7376 37.69 24.37C37.1184 24.1841 36.5211 24.0896 35.92 24.09C35.0428 24.0942 34.1772 24.2907 33.3842 24.6656C32.5911 25.0405 31.8899 25.5848 31.33 26.26C31.1257 26.5023 30.9449 26.7635 30.79 27.04C30.7725 27.0771 30.7489 27.1109 30.72 27.14L30.55 27.47C30.1757 28.2716 29.9812 29.1453 29.98 30.03C29.98 30.23 29.98 30.43 29.98 30.63C30.0731 31.6324 30.417 32.5953 30.98 33.43C31.6923 34.4575 32.716 35.2287 33.9 35.63C34.541 35.8618 35.2184 35.977 35.9 35.97C37.481 35.9701 38.9981 35.3462 40.1216 34.2339C41.2451 33.1216 41.8842 31.6109 41.9 30.03C41.8908 29.7713 41.8607 29.5138 41.81 29.26ZM71.68 34.05C71.56 32.79 71.43 31.35 71.2 29.94C70.5651 26.0235 69.2701 22.2431 67.37 18.76C63.587 11.8611 57.6671 6.37634 50.5 3.13C46.8709 1.48686 42.989 0.472419 39.02 0.129999C38.02 0.0499992 37.02 0 35.95 0C29.4293 0.00206956 23.0315 1.77518 17.44 5.13C16.59 5.63 15.77 6.13 14.96 6.75C12.8747 8.24212 10.9569 9.95542 9.24 11.86C8.48 12.69 7.76 13.57 7.08 14.48C6.56 15.17 6.08 15.87 5.63 16.6C4.77015 17.94 4.00174 19.3365 3.33 20.78C2.75872 21.9991 2.26116 23.2513 1.84 24.53C1.77 24.74 1.7 24.96 1.64 25.17C1.24825 26.3821 0.934276 27.6179 0.699997 28.87C0.461014 30.026 0.287409 31.1945 0.18 32.37C0.0700003 33.45 0.01 34.54 0 35.63V36.39C0 37.23 0.0499973 38.08 0.129997 38.92C0.209997 39.92 0.339997 41.02 0.519997 42.05C0.689997 43.05 0.900002 44.05 1.15 45.05C1.4 46.05 1.7 46.99 2.04 47.95V48.04C2.38 49 2.76 49.95 3.18 50.89C3.59 51.79 4.04 52.68 4.54 53.56C5.0404 54.4915 5.59467 55.393 6.2 56.26C6.62 56.91 7.09 57.55 7.58 58.18C7.75 58.38 7.9 58.59 8.09 58.8C8.76498 59.6141 9.48266 60.3919 10.24 61.13C11.0452 61.957 11.893 62.7414 12.78 63.48C13.7105 64.2517 14.682 64.9727 15.69 65.64L16.37 66.1C17.2781 66.6125 18.2127 67.0765 19.17 67.49C20.5641 68.1247 21.9892 68.6887 23.44 69.18C24.2619 69.4906 25.1239 69.6826 26 69.75C26.1575 69.76 26.3151 69.7326 26.46 69.67C27.23 69.31 27.95 68.96 28.58 68.67L28.75 68.58C32.43 66.79 34.27 65.9 36.12 65.9C37.0724 65.928 38.0114 66.1314 38.89 66.5C39.89 66.87 41.14 67.45 42.72 68.21L43.55 68.62C44.17 68.93 44.92 69.3 45.76 69.69C45.9423 69.7707 46.1408 69.8083 46.34 69.8C48.67 69.8 54.49 66.71 55.65 65.92C58.1474 64.1784 60.4446 62.1662 62.5 59.92C66.4236 55.6438 69.1969 50.4412 70.56 44.8C71.3023 41.7664 71.718 38.662 71.8 35.54C71.77 35.13 71.72 34.6 71.68 34.05ZM55.42 55.13L55.26 54.86C55.03 54.48 54.79 54.12 54.55 53.79C53.9348 52.9133 53.205 52.123 52.38 51.44C51.2503 50.4703 49.8582 49.8578 48.38 49.68C48.2669 49.6703 48.1531 49.6703 48.04 49.68C48.0444 49.7266 48.0444 49.7734 48.04 49.82C47.7333 51.0835 47.356 52.3287 46.91 53.55C46.63 54.34 46.32 55.12 45.99 55.88C45.3923 55.4137 44.745 55.0146 44.06 54.69C43.4861 54.4075 42.8867 54.1798 42.27 54.01C42.2 53.9773 42.126 53.9538 42.05 53.94C41.0846 53.6716 40.1025 53.4678 39.11 53.33C35.9939 52.9187 32.8269 53.1432 29.8 53.99H29.69H29.62L29.44 54.05C28.2127 54.4285 27.0665 55.0321 26.06 55.83H26C25.8933 55.59 25.7933 55.35 25.7 55.11C25.3199 54.194 24.9861 53.2595 24.7 52.31C24.38 51.31 24.1 50.31 23.86 49.31H23.46C21.6802 49.3634 19.9838 50.0762 18.7 51.31C17.839 52.0753 17.0975 52.9651 16.5 53.95C16.4373 54.0306 16.3837 54.1178 16.34 54.21C16.34 53.57 16.34 52.92 16.4 52.28C16.4499 51.5854 16.54 50.8942 16.67 50.21C16.7674 49.6941 16.8909 49.1834 17.04 48.68C17.3813 47.3782 17.8712 46.1199 18.5 44.93C19.3918 43.101 20.8089 41.5795 22.57 40.56C22.57 40.39 22.57 40.23 22.57 40.06C22.57 39.89 22.57 39.63 22.57 39.39C22.57 38.48 22.57 37.59 22.64 36.7C22.7 35.58 22.81 34.47 22.96 33.37C23.11 32.27 23.35 31 23.62 29.82C23.89 28.64 24.27 27.31 24.68 26.08C25.1038 24.7971 25.5979 23.5386 26.16 22.31L26.31 21.95C26.8902 20.6182 27.5862 19.34 28.39 18.13C28.72 17.63 29.08 17.13 29.39 16.68L29.66 16.32C30.6138 15.1413 31.6677 14.0472 32.81 13.05C33.7764 12.2148 34.8062 11.4559 35.89 10.78C36.23 11 36.58 11.23 36.89 11.46C38.77 12.7713 40.4536 14.3438 41.89 16.13L42.07 16.35C42.1879 16.4836 42.298 16.6239 42.4 16.77C42.87 17.36 43.29 17.99 43.71 18.63C44.2645 19.5158 44.7654 20.4342 45.21 21.38C45.3 21.56 45.38 21.74 45.46 21.92C45.81 22.67 46.12 23.43 46.46 24.2C46.82 25.14 47.15 26.07 47.46 27.02C47.77 27.97 48.03 29.02 48.26 30.02C48.49 31.02 48.68 32.02 48.83 33.09C48.98 34.16 49.08 35.09 49.15 36.15C49.22 37.21 49.26 38.26 49.25 39.32V39.47C49.25 39.88 49.25 40.22 49.25 40.54C49.9469 40.9463 50.5888 41.4403 51.16 42.01C51.8085 42.6478 52.367 43.3712 52.82 44.16C52.8892 44.2699 52.9526 44.3834 53.01 44.5C54.0187 46.2544 54.7188 48.1688 55.08 50.16V50.31C55.2699 51.3259 55.3703 52.3565 55.38 53.39C55.4249 53.9688 55.4382 54.5497 55.42 55.13ZM41.14 27.2C41.0567 27.0323 40.9597 26.8717 40.85 26.72L40.69 26.51C39.9497 25.489 38.8964 24.7376 37.69 24.37C37.1184 24.1841 36.5211 24.0896 35.92 24.09C35.0428 24.0942 34.1772 24.2907 33.3842 24.6656C32.5911 25.0405 31.8899 25.5848 31.33 26.26C31.1257 26.5023 30.9449 26.7635 30.79 27.04C30.7725 27.0771 30.7489 27.1109 30.72 27.14L30.55 27.47C30.1757 28.2716 29.9812 29.1453 29.98 30.03C29.98 30.23 29.98 30.43 29.98 30.63C30.0731 31.6324 30.417 32.5953 30.98 33.43C31.6923 34.4575 32.716 35.2287 33.9 35.63C34.541 35.8618 35.2184 35.977 35.9 35.97C37.481 35.9701 38.9981 35.3462 40.1216 34.2339C41.2451 33.1216 41.8842 31.6109 41.9 30.03C41.9007 29.7721 41.8806 29.5146 41.84 29.26C41.7464 28.5335 41.5084 27.8331 41.14 27.2ZM41.81 29.26C41.7257 28.5357 41.4979 27.8354 41.14 27.2C41.0567 27.0323 40.9597 26.8717 40.85 26.72L40.69 26.51C39.9497 25.489 38.8964 24.7376 37.69 24.37C37.1184 24.1841 36.5211 24.0896 35.92 24.09C35.0428 24.0942 34.1772 24.2907 33.3842 24.6656C32.5911 25.0405 31.8899 25.5848 31.33 26.26C31.1257 26.5023 30.9449 26.7635 30.79 27.04C30.7725 27.0771 30.7489 27.1109 30.72 27.14L30.55 27.47C30.1757 28.2716 29.9812 29.1453 29.98 30.03C29.98 30.23 29.98 30.43 29.98 30.63C30.0731 31.6324 30.417 32.5953 30.98 33.43C31.6923 34.4575 32.716 35.2287 33.9 35.63C34.541 35.8618 35.2184 35.977 35.9 35.97C37.481 35.9701 38.9981 35.3462 40.1216 34.2339C41.2451 33.1216 41.8842 31.6109 41.9 30.03C41.8908 29.7713 41.8607 29.5138 41.81 29.26ZM41.81 29.26C41.7257 28.5357 41.4979 27.8354 41.14 27.2C41.0567 27.0323 40.9597 26.8717 40.85 26.72L40.69 26.51C39.9497 25.489 38.8964 24.7376 37.69 24.37C37.1184 24.1841 36.5211 24.0896 35.92 24.09C35.0428 24.0942 34.1772 24.2907 33.3842 24.6656C32.5911 25.0405 31.8899 25.5848 31.33 26.26C31.1257 26.5023 30.9449 26.7635 30.79 27.04C30.7725 27.0771 30.7489 27.1109 30.72 27.14L30.55 27.47C30.1757 28.2716 29.9812 29.1453 29.98 30.03C29.98 30.23 29.98 30.43 29.98 30.63C30.0731 31.6324 30.417 32.5953 30.98 33.43C31.6923 34.4575 32.716 35.2287 33.9 35.63C34.541 35.8618 35.2184 35.977 35.9 35.97C37.481 35.9701 38.9981 35.3462 40.1216 34.2339C41.2451 33.1216 41.8842 31.6109 41.9 30.03C41.8908 29.7713 41.8607 29.5138 41.81 29.26ZM41.81 29.26C41.7257 28.5357 41.4979 27.8354 41.14 27.2C41.0567 27.0323 40.9597 26.8717 40.85 26.72L40.69 26.51C39.9497 25.489 38.8964 24.7376 37.69 24.37C37.1184 24.1841 36.5211 24.0896 35.92 24.09C35.0428 24.0942 34.1772 24.2907 33.3842 24.6656C32.5911 25.0405 31.8899 25.5848 31.33 26.26C31.1257 26.5023 30.9449 26.7635 30.79 27.04C30.7725 27.0771 30.7489 27.1109 30.72 27.14L30.55 27.47C30.1757 28.2716 29.9812 29.1453 29.98 30.03C29.98 30.23 29.98 30.43 29.98 30.63C30.0731 31.6324 30.417 32.5953 30.98 33.43C31.6923 34.4575 32.716 35.2287 33.9 35.63C34.541 35.8618 35.2184 35.977 35.9 35.97C37.481 35.9701 38.9981 35.3462 40.1216 34.2339C41.2451 33.1216 41.8842 31.6109 41.9 30.03C41.8908 29.7713 41.8607 29.5138 41.81 29.26ZM48.08 49.66H48.35H48.43C48.3136 49.6498 48.1964 49.6498 48.08 49.66ZM41.81 29.26C41.7257 28.5357 41.4979 27.8354 41.14 27.2C41.0567 27.0323 40.9597 26.8717 40.85 26.72L40.69 26.51C39.9497 25.489 38.8964 24.7376 37.69 24.37C37.1184 24.1841 36.5211 24.0896 35.92 24.09C35.0428 24.0942 34.1772 24.2907 33.3842 24.6656C32.5911 25.0405 31.8899 25.5848 31.33 26.26C31.1257 26.5023 30.9449 26.7635 30.79 27.04C30.7725 27.0771 30.7489 27.1109 30.72 27.14L30.55 27.47C30.1757 28.2716 29.9812 29.1453 29.98 30.03C29.98 30.23 29.98 30.43 29.98 30.63C30.0731 31.6324 30.417 32.5953 30.98 33.43C31.6923 34.4575 32.716 35.2287 33.9 35.63C34.541 35.8618 35.2184 35.977 35.9 35.97C37.481 35.9701 38.9981 35.3462 40.1216 34.2339C41.2451 33.1216 41.8842 31.6109 41.9 30.03C41.8908 29.7713 41.8607 29.5138 41.81 29.26Z" fill="white"/>
</svg>
