<svg width="192" height="355" viewBox="0 0 192 355" fill="none" xmlns="http://www.w3.org/2000/svg">
<path d="M90.4301 98.7382C94.96 97.3874 99.7315 99.9632 101.082 104.488C101.105 104.566 103.497 112.516 107.164 120.825C111.821 131.377 115.215 135.11 116.69 136.347C118.343 134.452 122.492 127.824 126.719 106.379C126.733 106.302 126.758 106.23 126.774 106.156L143.276 110.912C140.591 124.23 137.561 134.04 134.033 140.853C129.701 149.209 124.178 153.606 117.615 153.918C105.344 154.499 97.4118 140.532 92.5102 129.973C87.8068 119.841 84.789 109.79 84.665 109.367C83.3183 104.842 85.8961 100.085 90.4301 98.7382Z" fill="#222831"/>
<path d="M131.589 86.6792L129.257 114.872L117.9 113.121L120.379 84.9531L131.589 86.6792Z" fill="#C0C0CC"/>
<path d="M191.9 77.9975C191.9 77.9975 192.658 83.9698 189.994 89.8554L180.323 89.0676L182.374 75.7559L191.9 77.9975Z" fill="#D0D0DD"/>
<path d="M182.841 53.6445C182.841 53.6445 196.143 84.5307 174.047 107.143C174.047 107.143 148.037 90.5091 117.142 85.7639L121.18 59.5405C121.18 59.5405 160.904 61.9306 182.841 53.6445Z" fill="#E2E2F2"/>
<path d="M180.661 54.4542C181.434 54.1944 182.192 53.9325 182.923 53.6582C182.923 53.6582 196.267 84.5485 174.175 107.161C174.175 107.161 173.475 106.72 172.184 105.963C190.742 86.0931 182.81 60.2883 180.661 54.4542Z" fill="#444242"/>
<path d="M121.18 59.5403C121.18 59.5403 104.391 56.8058 102.387 69.8144C100.382 82.8189 117.142 85.7638 117.142 85.7638L121.18 59.5403Z" fill="#D34646"/>
<path d="M174.287 107.182C178.922 102.435 181.992 97.3248 183.958 92.2125C183.925 92.2042 183.89 92.196 183.857 92.1836C181.894 97.2897 178.827 102.392 174.206 107.131C174.258 107.166 174.287 107.182 174.287 107.182Z" fill="#E5E5E5"/>
<path d="M172.211 105.932C176.516 101.317 179.391 96.3817 181.242 91.4509C165.529 87.0934 137.211 79.9745 118.421 79.5518C118.421 79.5518 118.309 79.5497 118.103 79.5332L117.144 85.7447C117.345 85.788 117.456 85.8065 117.456 85.8065C142.968 89.731 165.448 101.972 172.211 105.932Z" fill="#CBCBD9"/>
<path d="M174.206 107.13C178.827 102.391 181.894 97.2894 183.856 92.1833C183.028 91.9502 182.159 91.7048 181.241 91.4512C179.391 96.382 176.515 101.317 172.211 105.932C173.301 106.569 173.985 106.992 174.206 107.13Z" fill="#3D3B3B"/>
<path d="M117.144 85.7453L118.103 79.5339C116.481 79.4143 108.981 78.6595 102.861 74.7227C104.835 82.7881 115.207 85.337 117.144 85.7453Z" fill="#BD3F3F"/>
<path d="M144.146 108.42C143.679 112.796 139.946 115.993 135.799 115.556C131.653 115.118 128.666 111.217 129.129 106.836L129.943 99.1463C130.405 94.7681 133.869 94.1391 138.017 94.5763C142.163 95.0135 145.368 96.8159 144.91 101.194L144.146 108.42Z" fill="#F7A184"/>
<path d="M141.586 99.2224C141.198 99.1481 140.824 98.9728 140.521 98.7006C137.309 95.7887 128.296 94.737 125.095 94.5782C123.994 94.5225 123.114 93.6873 123.124 92.7139C123.134 91.7426 124.035 90.9961 125.134 91.0518C126.479 91.1177 138.383 91.8333 143.303 96.2898C144.09 97.0034 144.104 98.1191 143.336 98.7852C142.865 99.1935 142.208 99.3378 141.586 99.2224Z" fill="#F7A184"/>
<path d="M140.118 102.038C139.808 102.005 139.496 101.893 139.222 101.695C133.88 97.8637 123.265 98.4473 123.157 98.4535C122.114 98.5153 121.214 97.7069 121.156 96.649C121.098 95.589 121.897 94.6795 122.943 94.6177C123.43 94.5867 134.989 93.9413 141.426 98.5586C142.279 99.1711 142.475 100.371 141.868 101.237C141.455 101.825 140.777 102.108 140.118 102.038Z" fill="#F7A184"/>
<path d="M135.91 103.808C135.673 103.787 135.433 103.73 135.204 103.635C130.118 101.486 123.653 101.645 123.587 101.645C122.486 101.676 121.544 100.935 121.48 99.9886C121.416 99.042 122.257 98.2481 123.358 98.2192C123.665 98.211 130.796 97.6232 136.786 100.149C137.784 100.572 138.325 102.016 137.858 102.863C137.499 103.517 136.71 103.872 135.91 103.808Z" fill="#F7A184"/>
<path d="M134.925 107.191C134.739 107.174 134.549 107.129 134.365 107.059C129.73 105.304 125.433 105.308 125.39 105.312C124.289 105.316 123.376 104.493 123.353 103.468C123.33 102.441 124.206 101.604 125.309 101.596C125.516 101.596 130.459 101.587 135.829 103.625C136.854 104.015 137.36 105.099 136.955 106.046C136.623 106.826 135.782 107.271 134.925 107.191Z" fill="#F7A184"/>
<path d="M73.8739 346.984L83.1134 348.617L87.2363 325.374L77.999 323.738L73.8739 346.984Z" fill="#EF8D72"/>
<path d="M41.9751 346.984L51.2145 348.617L55.3374 325.374L46.098 323.738L41.9751 346.984Z" fill="#EF8D72"/>
<path d="M48.0747 268.971C48.3638 242.339 43.9827 216.31 42.4087 207.877C41.7395 206.508 41.2954 204.988 41.1053 203.388L39.709 188.529H91.7207L90.3967 202.099C91.2993 206.539 97.2131 236.918 96.8641 269.153C96.5935 293.963 93.3402 311.29 90.9647 323.944C90.2397 327.794 89.5994 331.226 89.1408 334.305H72.0955C72.6098 330.199 73.4237 325.852 74.3656 320.836C76.7513 308.127 79.7237 292.307 79.9737 268.971C80.2112 247.109 77.3029 225.66 75.3839 214.008H60.6066C62.6061 226.691 65.1985 247.503 64.965 269.153C64.6945 293.963 61.437 311.29 59.0616 323.944C58.3407 327.794 57.6962 331.226 57.2397 334.305H40.1923C40.7067 330.199 41.5205 325.852 42.4624 320.836C44.8523 308.127 47.8206 292.307 48.0747 268.971Z" fill="#393E46"/>
<path d="M40.3596 195.454L39.7089 188.529H91.7207L90.6776 199.201C82.0991 200.762 60.1336 203.495 40.3596 195.454Z" fill="#222831"/>
<path d="M79.9737 268.971C80.0109 265.909 79.9799 262.859 79.9014 259.84C85.0943 274.304 91.5328 278.944 96.5439 280.048C95.6144 299.167 92.9746 313.326 90.9648 324.039C90.2397 327.89 89.5994 331.121 89.1408 334.491H72.0956C72.6099 330.373 73.4237 325.943 74.3656 320.932C76.7514 308.218 79.7238 292.308 79.9737 268.971Z" fill="#222831"/>
<path d="M42.4628 320.931C44.8527 308.217 47.8209 292.353 48.075 269.018C48.0977 266.997 48.0915 264.958 48.0647 262.951C53.4331 275.993 59.8551 279.649 64.6328 280.253C63.6992 299.275 61.0676 313.367 59.0619 324.045C58.341 327.895 57.6965 331.121 57.24 334.49H40.1927C40.707 330.372 41.5208 325.942 42.4628 320.931Z" fill="#222831"/>
<path d="M87.0672 339.692C87.0672 339.692 92.2746 344.311 101.227 347.318C101.227 347.318 117.347 342.226 113.081 355H71.1208C71.1208 355 69.71 345.891 72.4841 339.782C72.4841 339.782 73.521 339.316 75.0268 340.725C76.5326 342.131 81.5169 342.954 84.0101 342.154C84.0101 342.154 85.423 339.221 87.0672 339.692Z" fill="#222831"/>
<path d="M70.8213 351.994C70.9225 353.875 71.1208 354.999 71.1208 354.999H113.081C113.488 353.778 113.709 352.747 113.775 351.994H70.8213Z" fill="#393E46"/>
<path d="M55.1639 339.692C55.1639 339.692 60.3734 344.311 69.3256 347.318C69.3256 347.318 85.4414 342.226 81.1801 355H39.2175C39.2175 355 37.8067 345.891 40.5808 339.782C40.5808 339.782 41.6177 339.316 43.1215 340.725C44.6252 342.131 49.6137 342.954 52.1068 342.154C52.1068 342.154 53.5176 339.221 55.1639 339.692Z" fill="#31373F"/>
<path d="M38.9199 351.994C39.0191 353.875 39.2174 354.999 39.2174 354.999H81.18C81.5869 353.778 81.8059 352.747 81.874 351.994H38.9199Z" fill="#393E46"/>
<path d="M75.1795 90.0659C75.1795 90.0659 64.1368 87.0612 56.3764 90.0659L55.5791 95.9536L76.9043 96.9558L75.1795 90.0659Z" fill="#A8ADAD"/>
<path d="M96.4116 191.636C96.4116 191.636 102.792 112.863 95.5627 99.6461C95.5627 99.6461 86.9161 94.6699 67.5015 94.6699C47.7813 94.6699 42.1216 96.8868 35.4042 99.6461C35.4042 99.6461 32.0766 126.261 36.7365 191.636C36.7365 191.636 61.5526 202.659 96.4116 191.636Z" fill="#393E46"/>
<path d="M60.2182 93.8237H60.4082V79.5488H72.0768V93.8773L78.9077 95.822C78.9077 95.822 76.6542 102.075 66.0535 102.075C56.0808 102.075 52.7118 95.4116 52.7118 95.4116L60.2182 93.8237Z" fill="#EE8C72"/>
<path d="M81.1924 95.6035L70.947 149.308L51.1255 95.6035L67.7825 102.075L81.1924 95.6035Z" fill="#EBF1F2"/>
<path d="M79.8042 95.4141L74.6464 109.794L68.0613 105.034L65.8098 131.334L63.2299 126.201L64.8617 111.421L63.2299 108.792L60.9102 110.984L52.1293 95.4141L67.7824 102.075L79.8042 95.4141Z" fill="#A8ADAD"/>
<path d="M73.3928 105.378L69.9102 111.109L74.9937 133.744L71.3231 148.211L65.1573 135.421L65.7026 110.919L62.8562 105.91L67.7827 102.074L73.3928 105.378Z" fill="#393E46"/>
<path d="M75.1793 90.0664L79.8042 95.4138L74.0061 107.063L67.7824 102.075L75.1793 90.0664Z" fill="#EBF1F2"/>
<path d="M56.3765 90.0664L52.1296 95.4138L61.6024 108.29L67.7827 102.075L56.3765 90.0664Z" fill="#EBF1F2"/>
<path d="M78.4099 92.8428C78.4099 92.8428 74.8054 121.611 70.8043 145.603L53.759 92.3809L45.7321 95.4124L48.3678 117.87L54.6369 118.245L50.0595 124.822L71.1989 153.44L85.6229 124.634L79.8041 119.178L86.7528 117.87L87.4902 95.9877L78.4099 92.8428Z" fill="#CCCCCC"/>
<path d="M87.3353 45.8279C87.3353 45.8279 99.3364 41.6189 99.3364 53.6026C99.3364 65.5821 87.3353 62.0186 87.3353 62.0186V45.8279Z" fill="#EE8C72"/>
<path d="M39.7546 58.9365C40.7068 74.1723 51.072 86.9314 66.0207 86.9314C80.9674 86.9314 90.9504 74.1723 92.2827 58.9365L93.0449 30.8261C93.0449 16.51 80.9674 7.0918 66.0207 7.0918C51.072 7.0918 38.9944 16.51 38.9944 30.8261L39.7546 58.9365Z" fill="#F7A184"/>
<path d="M73.8555 35.8394C61.3153 29.4485 68.865 25.9984 60.5448 25.1055C54.4286 24.4497 50.7353 18.8796 48.9052 12.068C53.561 8.8777 59.5203 7.0918 66.0207 7.0918C80.9674 7.0918 93.0449 16.51 93.0449 30.8261L92.9024 35.9858C88.0462 37.9635 80.9302 39.4401 73.8555 35.8394Z" fill="#EE8C72"/>
<path d="M42.0103 45.8279C42.0103 45.8279 30.0091 41.6189 30.0091 53.6026C30.0091 65.5821 42.0103 62.0186 42.0103 62.0186V45.8279Z" fill="#F7A184"/>
<path d="M39.9342 60.8482C41.2128 60.8007 42.0494 60.5924 42.0494 60.5924C43.8754 73.3515 52.2679 83.3864 66.0206 83.8339C78.9678 84.2546 84.8919 77.9998 86.9307 75.1106C82.3409 82.2192 75.0989 86.9314 66.0206 86.9314C52.2204 86.9314 42.3344 76.0551 40.1449 62.3969C37.1828 62.7764 31.6677 62.6176 30.3395 56.5566C33.2726 60.4233 37.441 60.943 39.9342 60.8482Z" fill="#EE8C72"/>
<path d="M65.6364 71.744C65.5724 69.5044 67.3426 67.634 69.5858 67.57C71.8332 67.5061 73.7067 69.2735 73.7707 71.513L73.8079 72.7958C73.8719 75.0374 72.1017 76.9079 69.8564 76.9718C67.609 77.0357 65.7397 75.2684 65.6715 73.0288L65.6364 71.744Z" fill="white"/>
<path d="M68.7202 63.2015C68.7202 63.2015 64.463 60.4525 58.7351 65.8844C58.7351 65.8844 56.308 68.5983 54.387 69.0768C55.4901 69.4109 57.1219 70.2296 58.0328 70.5162C60.3359 71.2401 62.5461 71.1638 64.7811 70.3038C65.8573 69.8914 66.4315 69.6047 67.9663 68.6458C68.3071 68.4334 69.4308 67.3527 69.5506 67.3527H69.7427C72.9092 71.1864 75.9663 70.7183 80.1368 69.8646C81.403 69.6047 82.2643 68.885 83.1133 68.5344C81.1923 68.5344 78.7611 65.3421 78.7611 65.3421C74.1569 60.3597 70.7011 63.2015 70.7011 63.2015C70.7011 63.2015 69.6146 64.1913 68.7202 63.2015Z" fill="#231F20"/>
<path d="M77.2307 50.78C77.2307 52.9701 78.6972 54.7437 80.5067 54.7437C82.3161 54.7437 83.7827 52.9701 83.7827 50.78C83.7827 48.592 82.3161 46.8164 80.5067 46.8164C78.6972 46.8164 77.2307 48.592 77.2307 50.78Z" fill="#231F20"/>
<path d="M53.1315 50.78C53.1315 52.9701 54.5981 54.7437 56.4076 54.7437C58.217 54.7437 59.6836 52.9701 59.6836 50.78C59.6836 48.592 58.217 46.8164 56.4076 46.8164C54.5981 46.8164 53.1315 48.592 53.1315 50.78Z" fill="#231F20"/>
<path d="M87.0792 43.0379L87.4263 41.252C87.2176 41.2108 82.2519 40.2601 76.836 40.689L76.9805 42.5079C82.1383 42.0955 87.0276 43.0297 87.0792 43.0379Z" fill="#231F20"/>
<path d="M50.1629 43.0379L49.8118 41.252C50.0204 41.2108 54.9882 40.2601 60.4062 40.689L60.2617 42.5079C55.0997 42.0955 50.2105 43.0297 50.1629 43.0379Z" fill="#231F20"/>
<path d="M70.3957 58.5534C70.3957 58.5534 75.3862 58.3678 75.3862 62.6222C75.3862 66.8745 67.6547 65.7815 67.413 62.6222C67.1693 59.4628 66.7438 36.1286 70.3957 58.5534Z" fill="#EE8C72"/>
<path d="M39.7212 45.4185C39.7212 45.4185 39.8162 41.0114 40.3946 32.482C45.0979 29.4175 47.2069 28.2668 51.9103 18.0154C51.8607 18.3577 55.6883 21.8986 55.9196 22.0388C57.3036 22.8617 58.7743 23.4597 60.3689 23.701C62.482 24.0145 64.6653 23.8206 66.6339 24.7775C69.1022 25.9736 70.5007 28.3782 72.2399 30.3662C73.4317 31.7272 74.7868 32.6491 76.5095 33.2141C80.0003 34.3587 84.5219 35.1155 88.1037 34.0163C89.8532 33.4781 91.7474 32.1479 92.5984 30.4713C92.5984 30.4713 92.5984 38.5182 92.6955 45.5113C92.6955 45.5113 95.9922 36.986 95.9922 25.2332C95.9922 10.1005 85.2015 -0.227174 66.8797 0.00379693C63.6739 0.0429796 60.4474 0.752391 57.5679 2.17534C56.1757 2.86206 54.9198 3.72614 53.728 4.71395C53.0567 5.27076 51.4373 7.1907 50.4396 7.09172C50.4396 7.09172 43.7698 6.79682 39.6262 12.0762C35.117 17.8236 30.8928 29.3227 39.7212 45.4185Z" fill="#231F20"/>
<path d="M29.5381 182.203L33.3759 179.516L36.2657 180.106C38.9923 179.227 40.1965 177.437 41.5619 177.231C42.9252 177.023 45.059 175.598 45.059 175.598C46.3107 177.499 43.8568 179.537 43.8568 179.537C44.0468 179.499 44.2348 179.46 44.4248 179.421C44.8937 179.328 45.3626 179.229 45.8315 179.139C46.4264 179.021 47.0213 178.893 47.6203 178.776C48.1966 178.668 48.7708 178.534 49.3513 178.433C49.8016 178.353 50.2498 178.264 50.7042 178.244C51.1773 178.225 51.6317 178.322 52.1006 178.417C52.681 178.534 55.734 179.617 56.2483 179.735C56.4858 179.786 56.9795 179.897 56.9816 179.902C57.2088 180.485 57.2501 181.114 56.9568 181.642C56.4363 182.593 55.0482 182.572 54.3459 182.45C53.8171 182.358 53.1148 182.114 52.6025 181.931C52.1625 181.776 52.2782 181.681 51.5098 181.764C51.0657 181.809 50.6402 181.964 50.2023 182.061C49.2521 182.269 48.304 182.486 47.3518 182.708C47.139 182.76 46.9242 182.811 46.7052 182.863C46.7052 182.863 51.3012 183.702 52.7326 184.106C53.8047 184.408 56.8184 187.311 56.8184 187.311C58.9976 189.382 55.5832 190.182 55.5832 190.182C55.7567 190.376 55.9922 190.71 55.9901 191.001C55.9839 191.246 55.8166 191.442 55.6741 191.58C55.4097 191.844 55.0812 191.962 54.7528 192.067C54.1496 192.256 53.5052 192.337 52.8752 192.176C52.6996 192.131 52.5282 192.067 52.3567 191.999C52.1894 191.929 52.0283 191.852 51.863 191.772C51.6565 191.673 51.454 191.564 51.2537 191.45C50.6278 191.102 50.004 190.753 49.4194 190.316C49.3492 190.264 49.1839 190.083 49.0972 190.081L45.532 189.87C46.7362 190.528 47.9776 192.702 49.6053 193.702C49.847 193.848 50.0969 194.018 50.3014 194.24C50.4915 194.447 50.7146 194.754 50.6732 195.073C50.6319 195.385 50.3448 195.474 50.13 195.558C49.436 195.83 48.6965 195.82 47.9652 195.647C47.5893 195.56 47.2237 195.41 46.8705 195.224C46.6102 195.084 46.3623 194.921 46.1227 194.733C46.0236 194.653 45.9162 194.574 45.817 194.469C43.6502 192.063 41.2355 190.856 38.1433 192.448C33.6858 194.746 30.1908 188.111 30.1908 188.111L29.5381 182.203Z" fill="#F7A184"/>
<path d="M0.630157 136.705C-2.50748 153.368 6.08333 170.937 26.1485 188.944L38.6743 177.206C38.6041 177.14 38.5401 177.07 38.4678 177.006C27.5304 167.363 15.0067 153.098 17.4544 139.91C19.1358 130.863 27.611 123.705 34.9934 119.228L35.735 99.6387C27.9621 103.019 4.74689 114.823 0.630157 136.705Z" fill="#393E46"/>
</svg>
